<svg width="86" height="84" viewBox="0 0 86 84" fill="none" xmlns="http://www.w3.org/2000/svg">
<g clip-path="url(#clip0_4884_5512)">
<path fill-rule="evenodd" clip-rule="evenodd" d="M10.3934 54.0243C10.5425 53.3678 10.6544 52.8706 10.7476 52.4392C11.3256 52.7018 12.556 53.3959 12.9382 53.7429C12.3696 53.9493 11.0459 54.0243 10.3934 54.0243ZM70.4424 9.36855C71.011 8.40246 71.8033 7.62396 72.8194 7.0143C74.0778 6.26394 75.5785 5.88876 77.3216 5.88876C78.7944 5.88876 80.0808 6.17952 81.1901 6.74229C82.3086 7.30506 83.1755 8.16797 83.8094 9.32165C84.4433 10.4753 84.7509 11.9292 84.7509 13.6831V24.2444H82.3086V13.927C82.3086 12.0042 81.8332 10.5597 80.8825 9.58428C79.9317 8.59943 78.5987 8.1117 76.8742 8.1117C75.5879 8.1117 74.4786 8.36494 73.5185 8.89019C72.5677 9.40607 71.8406 10.1564 71.3186 11.1413C70.8059 12.1167 70.5449 13.2986 70.5449 14.6867V24.2444H68.1027V6.06697H70.4424V9.36855ZM3.32772 10.9162H10.9993C12.9288 10.9162 14.4296 10.541 15.4923 9.80938C16.5549 9.0684 17.0955 7.971 17.0955 6.51718C17.0955 5.03522 16.5549 3.93782 15.4923 3.20622C14.4296 2.484 12.9288 2.1182 10.9993 2.1182H3.32772V10.9162ZM3.32772 13.0266V22.1247H11.8289C13.9356 22.1247 15.5575 21.7682 16.6761 21.0366C17.804 20.3144 18.3633 19.1514 18.3633 17.5568C18.3633 15.9905 17.804 14.8462 16.6761 14.1146C15.5575 13.3924 13.9356 13.0266 11.8289 13.0266H3.32772ZM0.782954 24.2444V0.0078125H11.1764C13.861 0.0078125 15.9397 0.551823 17.4218 1.63047C18.8946 2.71849 19.6403 4.25672 19.6403 6.2358C19.6403 7.55831 19.3327 8.66509 18.7268 9.56552C18.1209 10.4659 17.2913 11.1413 16.2473 11.6009C16.182 11.629 16.1168 11.6571 16.0515 11.6853V11.7509C16.5269 11.8541 16.9744 12.0042 17.3845 12.173C18.4938 12.6514 19.3607 13.3548 19.9852 14.2834C20.6004 15.2214 20.908 16.3844 20.908 17.7632C20.908 19.8173 20.1623 21.4118 18.6522 22.5467C17.1515 23.6723 14.8864 24.2444 11.8662 24.2444H0.782954ZM33.0073 24.4133C32.2336 24.4133 31.5066 24.3382 30.8354 24.1975C31.8887 24.8635 32.7743 25.7827 33.3895 27.0395C34.2471 28.7747 34.4242 30.5662 34.2284 32.7047C33.7344 37.9572 30.4998 43.2848 27.0322 47.1679L25.373 48.8375C22.791 51.4262 19.4632 53.1145 16.1727 54.559C16.3871 54.7747 16.6388 55.0186 16.8905 55.2624L21.1038 60.2898L24.2078 64.6607C24.4502 65.0171 24.7485 65.3923 25.0095 65.7487C26.3238 67.5308 27.5543 69.2285 29.2694 70.6823C29.8473 71.17 30.938 71.7891 32.0006 71.6296C33.9954 71.3295 34.564 69.3879 35.3936 69.4442C35.9343 69.4724 36.2139 69.9695 35.9622 70.5229C35.8504 70.7667 35.2724 71.3483 35.086 71.5265C33.0819 73.4586 30.882 73.6275 28.5796 71.9579C28.0856 71.5921 26.6221 70.2039 26.2213 69.6787C25.1959 68.3374 24.5527 67.5871 23.4248 66.0301L21.4953 63.3288C21.2063 62.9724 20.5352 61.9125 20.2742 61.7905C20.1157 61.1152 16.9371 57.4103 16.3032 56.7256C16.0515 56.4536 14.7838 55.1968 14.5042 54.9623C11.9128 55.5157 10.6171 55.4781 10.0765 55.5157C9.7409 56.0784 8.60368 61.5092 8.38928 62.3721C8.23082 62.7566 8.0071 63.9384 7.89525 64.4356C7.29867 66.968 4.85644 77.3793 4.8378 79.0863C5.35048 77.6419 6.34788 78.336 6.39449 78.8894C6.44109 79.4615 5.08016 81.9565 4.6234 82.2566C4.02683 82.6318 3.43958 82.2285 3.29043 81.7126C2.68454 79.5272 6.29195 64.792 6.77667 62.8504L8.54775 55.375C7.3546 55.1686 6.28263 54.9998 5.4437 54.3526C5.19202 54.1463 4.61408 53.6022 4.4463 53.3396C3.32772 51.5763 4.50223 50.1318 6.21738 49.8973C7.51306 49.7285 8.52911 50.0662 9.71293 50.4038C10.3468 47.7494 13.7212 34.0366 14.383 31.3072C14.5508 30.5568 14.5974 29.0749 15.4177 29.0186C16.6574 28.9436 16.0422 30.6037 15.8744 31.2884C14.2525 37.8353 12.7424 44.401 11.1112 50.9478C12.1458 51.52 13.1339 52.0734 14.1034 52.7675C14.8118 53.274 14.616 53.4334 15.6134 53.0958C17.3286 52.5236 18.8853 51.8108 20.4233 50.8259C23.2757 49.0063 25.7366 46.8021 27.75 44.0352C29.9685 40.9774 33.287 35.5655 32.8022 30.3223C32.2336 24.2257 26.4636 23.4378 20.5072 24.704C15.4829 25.7733 9.70361 28.6434 6.10552 32.1326C4.79119 33.3988 4.17597 33.9522 3.14129 35.6124C-0.382232 41.2213 2.78707 43.8194 2.27439 44.8324C2.06932 45.2451 1.27699 45.4702 0.904133 44.6261C-0.894913 40.5647 0.167736 37.235 2.48879 33.9334L3.55143 32.6109C3.76583 32.4046 3.91497 32.1889 4.12937 31.9544C4.80983 31.1946 6.40381 29.8815 7.26138 29.2343C10.8222 26.533 16.0795 23.963 21.1504 23.0532C23.3689 22.6499 25.951 22.528 28.2347 23.1095C27.4424 22.5655 26.7992 21.8433 26.3145 20.9522C25.6806 19.7985 25.373 18.3541 25.373 16.6283V6.06697H27.8153V16.3469C27.8153 18.2884 28.2906 19.7423 29.2414 20.7271C30.1922 21.712 31.5252 22.1997 33.2497 22.1997C34.5081 22.1997 35.608 21.9371 36.5308 21.4212C37.463 20.8959 38.1714 20.1456 38.6655 19.1514C39.1595 18.1571 39.4019 16.9753 39.4019 15.5872V6.06697H41.8441V24.2444H39.5044V20.8397H39.551C38.9824 21.8527 38.2087 22.6687 37.2206 23.2877C36.0182 24.0381 34.6106 24.4133 33.0073 24.4133ZM55.6678 24.4133C53.7849 24.4133 52.135 24.0193 50.7088 23.2221C49.292 22.4248 48.1734 21.3274 47.3717 19.9299C46.5701 18.5323 46.1693 16.9378 46.1693 15.1369C46.1693 13.3361 46.5514 11.7416 47.3251 10.3628C48.0895 8.97461 49.1428 7.88659 50.4851 7.08933C51.8274 6.29207 53.3375 5.88876 55.006 5.88876C56.7118 5.88876 58.2126 6.28269 59.5363 7.05181C60.8506 7.83031 61.8946 8.90895 62.6496 10.3065C63.4047 11.704 63.7869 13.3173 63.7869 15.1369C63.7869 15.2495 63.7775 15.3714 63.7682 15.5027C63.7589 15.6247 63.7496 15.756 63.7496 15.8967H48.5649C48.6488 17.0128 48.9471 18.0071 49.4504 18.8887C50.0656 19.9392 50.9139 20.7646 52.0045 21.3462C53.0858 21.9371 54.3349 22.2372 55.7331 22.2372C56.833 22.2372 57.8584 22.0402 58.8092 21.6463C59.76 21.2524 60.5803 20.6521 61.2701 19.8454L62.6496 21.44C61.848 22.406 60.8413 23.147 59.6388 23.6535C58.4363 24.16 57.1127 24.4133 55.6678 24.4133ZM48.5742 14.0583H61.4472C61.3633 13.0359 61.093 12.1074 60.6362 11.2726C60.0769 10.2502 59.3125 9.44358 58.3431 8.87144C57.383 8.28991 56.2737 8.00852 55.006 8.00852C53.7756 8.00852 52.657 8.28991 51.6689 8.87144C50.6902 9.44358 49.9165 10.2502 49.3665 11.2913C48.9377 12.1074 48.6674 13.0266 48.5835 14.0302L48.5742 14.0583ZM73.1829 55.9471C73.1829 55.0279 73.621 53.3584 74.3201 53.077C74.3761 54.3807 75.0845 55.3187 75.9234 56.0409C76.1751 56.266 76.5107 56.4255 76.809 56.6693C76.1844 58.7703 73.1829 59.4175 73.1829 55.9471ZM77.2191 55.1217C75.2523 54.1556 75.448 50.901 76.5946 51.2105C77.3403 51.2855 77.2564 53.9118 77.2191 55.1217ZM58.8185 51.4825C58.1287 50.4038 58.8838 48.6405 59.3685 47.7682C59.8345 46.9428 61.1955 44.9356 61.6802 45.1888C62.0437 45.3858 59.5922 50.3569 58.8185 51.4825ZM59.0329 53.5929C61.3167 54.5496 62.9573 52.6455 64.7004 51.9327C64.5046 52.8613 64.0945 53.9493 63.8055 54.906C63.5072 55.8815 63.2462 56.8851 62.9759 57.8136L62.3047 60.6931C62.0437 62.5597 61.1582 66.1989 62.7149 67.1556C64.0385 67.9716 65.2783 66.4991 65.8842 66.0019L67.3383 64.4074L68.5967 62.7097C68.9789 62.1657 69.3611 61.5279 69.734 60.9464L71.8686 57.279C72.2321 58.2263 72.344 58.6484 72.9406 59.183C74.2829 60.393 75.7463 60.0178 77.0234 58.9861C77.303 58.761 78.0674 57.7949 78.1513 57.1946C80.0062 57.3634 80.6308 57.2509 82.1688 56.4724C83.045 56.0315 86.0279 53.8367 86 52.8988C85.9906 52.5611 85.7203 52.261 85.4407 52.1953C84.8814 52.0734 84.5924 52.5705 84.0331 53.1895C82.6629 54.6996 80.7333 56.0409 78.608 55.7877C78.6546 54.7559 78.7851 54.0056 78.6826 52.8894C78.5894 51.8108 78.2818 50.4695 77.2564 49.9067C76.2217 49.344 74.8515 50.3007 74.5998 51.3324C73.2948 50.9197 72.9965 51.9046 72.838 52.1672C72.6609 52.3735 70.6288 56.8475 70.1721 57.2884C70.0602 57.7198 69.0721 59.2581 68.7925 59.7083C67.8976 61.1715 64.8215 65.7487 63.5352 65.9269C62.7522 64.8858 64.1784 58.489 64.6631 57.3165C64.8402 56.3973 65.1851 55.4125 65.4368 54.5214C65.6605 53.7429 66.5553 51.2668 66.4621 50.5914C66.3596 49.766 65.5859 49.8036 64.9893 50.0568C63.4233 50.7227 61.9039 52.4204 60.0956 52.3454C60.3752 51.5481 62.4632 48.3403 62.92 46.3519C63.0691 45.7516 63.3208 44.8887 63.0784 44.279C62.8454 43.7069 62.2395 43.3505 61.4845 43.5849C60.6362 43.8382 59.4803 45.1044 58.9397 45.8079C57.905 47.1585 56.8424 49.1751 57.1686 51.1073C57.2152 51.3699 57.3457 51.7826 57.4389 51.9984C57.5694 52.2797 57.7092 52.4955 57.8864 52.6737C56.2737 55.0186 54.6704 57.0914 52.3587 58.7797C50.541 60.1116 49.5996 59.9146 49.7673 57.1758C49.8233 56.2942 49.9258 55.4875 50.0936 54.6246C50.1868 54.1463 50.6063 52.5799 50.6063 52.2422C50.597 51.4919 49.4411 51.051 49.1614 52.2797C48.6954 54.3338 47.8098 57.8981 48.6581 59.8115C49.3758 61.4247 51.1003 61.2559 52.5731 60.3836C54.7264 59.108 57.6999 55.8346 59.0329 53.5929ZM49.6928 48.7155C50.5317 49.9818 52.5452 48.5655 51.7901 47.4305C51.3706 46.4832 49.0123 47.2898 49.6928 48.7155ZM34.4149 51.3418C34.6759 50.4789 36.652 47.0741 37.2859 47.2336C38.1155 47.4399 34.9089 51.1354 34.4149 51.3418ZM32.448 61.3122C32.6717 61.5185 32.9048 61.8374 33.2404 62.0344C33.548 62.222 33.9395 62.3721 34.3496 62.4284C35.5521 62.5972 35.9529 62.2689 36.9037 61.9781C37.4537 61.5373 37.9011 61.3685 38.7494 60.6275L39.6069 59.8865C40.0544 59.5207 43.3262 56.0972 43.6245 55.3281C42.9813 58.292 42.3381 61.3028 41.7043 64.2949C40.828 69.0409 38.9358 77.6419 38.5722 82.2941C38.4045 84.4983 39.7095 84.095 40.0916 83.6072C40.2688 83.3821 40.5018 82.7631 40.6416 82.4161C40.9213 81.7032 40.6882 81.525 40.1662 81.2811C40.1103 79.6679 42.8042 65.9457 43.1677 64.2949C43.6431 62.222 44.0346 60.0647 44.5007 57.9168C45.3862 53.7898 46.2718 49.5222 47.2412 45.4327L48.6674 39.2422C52.2375 39.2798 71.9618 38.5294 73.8913 39.4298C74.3761 39.6549 74.8421 39.4486 74.9447 39.0171C75.2057 37.9291 73.621 37.8259 72.7355 37.7509C68.4383 37.3757 60.3099 37.5633 55.817 37.6477C54.6145 37.6665 49.8606 37.7978 49.0403 37.7415C49.3013 36.2408 49.8512 34.5337 50.2148 33.033C50.4012 32.2733 50.6249 31.476 50.8114 30.735C50.9046 30.3692 51.5664 28.7278 50.2614 28.8591C49.5343 28.9342 49.4691 30.116 49.2733 30.8476L47.5209 37.779L35.347 38.1167C34.7132 38.1167 34.1073 38.0417 33.9768 38.6607C33.8276 39.3923 34.4149 39.5799 34.9742 39.5705L39.6535 39.4767C42.1424 39.3923 44.6219 39.3923 47.1387 39.2891C47.0362 39.9738 46.8124 40.8274 46.654 41.4839C45.8244 44.9168 45.1252 48.4248 44.3422 51.867C44.2584 52.2516 44.044 52.3266 43.8202 52.6549L40.1476 57.2415C39.2154 58.1513 35.3563 62.5878 33.7437 60.5149C32.4667 58.8735 32.9421 56.2191 33.5293 54.2213C33.7251 53.5741 33.6505 53.7429 34.0234 53.3959L35.9809 51.595C37.0528 50.3945 38.8146 48.4623 38.8426 46.8678C38.8612 46.0986 38.4417 45.5077 37.6308 45.5359C36.8384 45.5546 36.3817 46.0705 35.9715 46.4269C33.3429 48.6686 30.882 55.9002 31.6743 59.5488C31.8794 60.4774 32.1311 60.6556 32.448 61.3122ZM8.91129 53.968C8.18421 53.9211 7.41053 53.7148 6.81395 53.424C4.64205 52.3829 5.35048 51.1073 7.28935 51.323C7.99778 51.3981 8.81807 51.6138 9.40533 51.8952L8.91129 53.968Z" fill="#A4A4A4"/>
</g>
<defs>
<clipPath id="clip0_4884_5512">
<rect width="86" height="84" fill="white"/>
</clipPath>
</defs>
</svg>
